<svg width="34" height="34" viewBox="0 0 34 34" fill="none" xmlns="http://www.w3.org/2000/svg">
<path d="M9.67993 31.6393C9.67993 27.5993 12.9599 24.3193 16.9999 24.3193C21.0399 24.3193 24.3199 27.5993 24.3199 31.6393"  stroke-miterlimit="10"/>
<path d="M17.5199 23.7995C19.5412 23.7995 21.1799 22.1609 21.1799 20.1395C21.1799 18.1181 19.5412 16.4795 17.5199 16.4795C15.4985 16.4795 13.8599 18.1181 13.8599 20.1395C13.8599 22.1609 15.4985 23.7995 17.5199 23.7995Z"  stroke-miterlimit="10"/>
<path d="M24.86 1.83984H9.14001C7.1297 1.83984 5.5 3.46953 5.5 5.47984V28.5198C5.5 30.5302 7.1297 32.1598 9.14001 32.1598H24.86C26.8703 32.1598 28.5 30.5302 28.5 28.5198V5.47984C28.5 3.46953 26.8703 1.83984 24.86 1.83984Z"  stroke-miterlimit="10"/>
<path d="M10.0701 8.08984H24.5901"  stroke-miterlimit="10"/>
<path d="M10.27 11.7695H20.35"  stroke-miterlimit="10"/>
</svg>
