<svg width="34" height="34" viewBox="0 0 34 34" fill="none" xmlns="http://www.w3.org/2000/svg">
<path d="M26.98 0.549805H7.02C5.62825 0.549805 4.5 1.67805 4.5 3.0698V30.9198C4.5 32.3116 5.62825 33.4398 7.02 33.4398H26.98C28.3718 33.4398 29.5 32.3116 29.5 30.9198V3.0698C29.5 1.67805 28.3718 0.549805 26.98 0.549805Z" stroke="white" stroke-miterlimit="10"/>
<path d="M21.8799 12.2697C20.7299 12.1697 19.9199 11.5597 19.8899 10.4897H21.2199C21.2599 10.8997 21.4699 11.1697 21.8799 11.2597V9.55973C20.9599 9.32973 19.8899 9.06973 19.8899 7.75973C19.8899 6.70973 20.7299 6.02973 21.8799 5.93973V5.21973H22.4499V5.93973C23.5599 6.02973 24.3099 6.61973 24.3899 7.67973H23.0499C23.0099 7.32973 22.7999 7.06973 22.4499 6.95973V8.63973C23.3699 8.87973 24.4599 9.11973 24.4599 10.4297C24.4599 11.3397 23.7499 12.1797 22.4499 12.2697V12.9897H21.8799V12.2597V12.2697ZM21.8799 8.46973V6.92973C21.4699 6.98973 21.1899 7.23973 21.1899 7.68973C21.1899 8.10973 21.4699 8.31973 21.8799 8.45973V8.46973ZM22.4499 9.72973V11.2797C22.8999 11.1997 23.1699 10.8897 23.1699 10.4897C23.1699 10.0897 22.8699 9.86973 22.4499 9.72973Z" fill="white"/>
<path d="M16.12 6.91016H8.22998" stroke="white" stroke-miterlimit="10"/>
<path d="M16.12 11.0801H8.22998" stroke="white" stroke-miterlimit="10"/>
<path d="M25.77 17.2197H8.22998" stroke="white" stroke-miterlimit="10"/>
<path d="M25.77 21.6094H8.22998" stroke="white" stroke-miterlimit="10"/>
</svg>
