<svg width="34" height="34" viewBox="0 0 34 34" fill="none" xmlns="http://www.w3.org/2000/svg">
<path d="M17.2401 29.4997L0.67009 24.6197C0.67009 24.6197 0.600098 24.5697 0.600098 24.5197V8.50972C0.600098 8.43972 0.650098 8.38972 0.710098 8.40972L17.2801 12.5897C17.2801 12.5897 17.3501 12.6397 17.3501 12.6897V29.3997C17.3501 29.4697 17.3001 29.5197 17.2401 29.4997Z"  stroke-miterlimit="10"/>
<path d="M17.4601 29.4997L33.3301 24.6197C33.3301 24.6197 33.3901 24.5697 33.3901 24.5197V8.50972C33.3901 8.43972 33.3401 8.38972 33.2801 8.40972L17.4101 12.5897C17.4101 12.5897 17.3501 12.6397 17.3501 12.6897V29.3997C17.3501 29.4697 17.4001 29.5197 17.4601 29.4997Z"  stroke-miterlimit="10"/>
<path d="M0.720215 8.41L16.2902 4.5L33.2902 8.41"  stroke-miterlimit="10"/>
<path d="M16.29 6.96973L6.54004 9.79973V18.5997L10.65 19.6597V11.0797L21.23 8.02973L16.29 6.96973Z"  stroke-miterlimit="10"/>
</svg>
