<svg width="34" height="35" viewBox="0 0 34 35" fill="none" xmlns="http://www.w3.org/2000/svg">
<path d="M0.53001 20.6296C0.57001 20.5496 0.61001 20.4796 0.64001 20.3996C0.91001 19.7296 1.40001 19.3496 2.12001 19.2896C2.22001 19.2896 2.32001 19.2796 2.42001 19.2796C3.22001 19.2796 3.52001 19.0396 3.64001 18.2396C3.66001 18.0696 3.56001 17.8596 3.46001 17.6996C3.32001 17.4896 3.11001 17.3296 2.94001 17.1396C2.45001 16.5296 2.41001 15.6296 2.93001 15.0496C3.53001 14.3796 4.16001 13.7396 4.83001 13.1396C5.43001 12.5996 6.32001 12.6396 6.94001 13.1596C7.13001 13.3196 7.30001 13.4896 7.47001 13.6696C7.67001 13.8696 7.90001 13.9296 8.17001 13.8196C8.33001 13.7496 8.50001 13.6896 8.66001 13.6196C8.92001 13.5096 9.06001 13.3096 9.05001 13.0196C9.05001 12.8096 9.05001 12.5996 9.05001 12.3896C9.10001 11.4796 9.77001 10.7996 10.67 10.7696C11.48 10.7396 12.29 10.7396 13.1 10.7696C13.99 10.7996 14.65 11.4796 14.71 12.3696C14.71 12.4596 14.71 12.5496 14.71 12.6396C14.71 13.4596 14.91 13.7196 15.74 13.8596C15.91 13.8896 16.13 13.7896 16.28 13.6896C16.5 13.5396 16.66 13.3196 16.87 13.1596C17.5 12.6596 18.38 12.6496 18.98 13.1896C19.62 13.7696 20.23 14.3896 20.81 15.0296C21.36 15.6296 21.34 16.5296 20.83 17.1696C20.67 17.3696 20.48 17.5396 20.31 17.7296C20.12 17.9296 20.07 18.1496 20.17 18.3996C20.22 18.5196 20.28 18.6396 20.32 18.7696C20.45 19.1696 20.72 19.3096 21.13 19.3096C21.44 19.3096 21.76 19.3096 22.05 19.3996C22.73 19.5896 23.2 20.1896 23.22 20.8896C23.24 21.7096 23.25 22.5296 23.22 23.3596C23.19 24.2696 22.51 24.9296 21.6 24.9896C21.52 24.9896 21.44 24.9896 21.37 24.9896C20.53 24.9896 20.3 25.1596 20.14 25.9996C20.11 26.1696 20.21 26.3996 20.32 26.5596C20.46 26.7696 20.68 26.9296 20.83 27.1196C21.32 27.7296 21.36 28.5996 20.85 29.1796C20.24 29.8696 19.59 30.5196 18.9 31.1296C18.34 31.6296 17.45 31.5896 16.87 31.1296C16.66 30.9596 16.48 30.7696 16.29 30.5896C16.09 30.3896 15.86 30.3296 15.59 30.4496C15.44 30.5196 15.29 30.5796 15.13 30.6396C14.85 30.7496 14.72 30.9596 14.71 31.2596C14.71 31.4396 14.71 31.6196 14.71 31.7896C14.68 32.6096 14.27 33.1696 13.5 33.4396C13.45 33.4596 13.41 33.4896 13.36 33.5196H10.43C10.43 33.5196 10.33 33.4696 10.28 33.4496C9.49001 33.1896 9.05001 32.5996 9.03001 31.7596C9.03001 31.5696 9.07001 31.3696 9.02001 31.1996C8.97001 31.0196 8.88001 30.8096 8.73001 30.7196C8.00001 30.2396 7.77001 30.2696 7.15001 30.8796C7.13001 30.8996 7.10001 30.9296 7.08001 30.9496C6.32001 31.6596 5.36001 31.6696 4.61001 30.9596C4.08001 30.4596 3.57001 29.9296 3.06001 29.4096C2.62001 28.9596 2.41001 28.3996 2.60001 27.7996C2.72001 27.4196 2.99001 27.0596 3.26001 26.7496C3.69001 26.2596 3.72001 26.2096 3.47001 25.6096C3.44001 25.5496 3.42001 25.4896 3.39001 25.4296C3.28001 25.1196 3.06001 24.9796 2.73001 24.9896C2.52001 24.9896 2.31001 24.9996 2.10001 24.9896C1.24001 24.9096 0.76001 24.3796 0.51001 23.5996C0.51001 22.6196 0.51001 21.6396 0.51001 20.6696L0.53001 20.6296Z" stroke="white" stroke-miterlimit="10"/>
<path d="M25.4399 24.14C25.5099 24.2 25.5699 24.26 25.6299 24.33C26.1299 24.83 26.6299 25.34 27.1399 25.84C27.5699 26.27 27.8299 26.27 28.2599 25.84C28.9599 25.14 29.6599 24.44 30.3499 23.74C30.7699 23.31 30.7799 23.06 30.3599 22.64C29.9999 22.28 29.6299 21.92 29.2799 21.55C28.7199 20.97 28.5899 20.31 28.9099 19.56C29.1099 19.1 29.2999 18.64 29.4799 18.18C29.7799 17.43 30.3199 17.03 31.1299 17.02C31.6599 17.02 32.1899 17.02 32.7299 17.02C33.2499 17.02 33.4499 16.81 33.4499 16.28C33.4499 15.25 33.4499 14.21 33.4499 13.18C33.4499 12.68 33.2399 12.47 32.7399 12.46C32.2099 12.46 31.6799 12.46 31.1399 12.46C30.3299 12.45 29.7799 12.06 29.4799 11.31C29.2899 10.84 29.0999 10.36 28.8999 9.90004C28.5899 9.16004 28.7199 8.51004 29.2599 7.94004C29.6299 7.56004 30.0099 7.19004 30.3899 6.81004C30.7499 6.44004 30.7499 6.17004 30.3899 5.81004C29.6499 5.06004 28.8999 4.31004 28.1499 3.57004C27.8099 3.24004 27.5299 3.24004 27.1999 3.57004C26.8199 3.94004 26.4499 4.33004 26.0699 4.70004C25.4599 5.30004 24.8099 5.41004 24.0299 5.07004C23.5799 4.88004 23.1299 4.69004 22.6799 4.51004C21.9099 4.20004 21.5299 3.65004 21.5199 2.82004C21.5199 2.31004 21.5199 1.80004 21.5199 1.29004C21.5199 0.750039 21.3099 0.540039 20.7799 0.540039C19.7599 0.540039 18.7399 0.540039 17.7199 0.540039C17.1799 0.540039 16.9799 0.740039 16.9799 1.29004C16.9799 1.79004 16.9799 2.29004 16.9799 2.79004C16.9699 3.69004 16.5899 4.22004 15.7599 4.54004C15.3099 4.72004 14.8599 4.91004 14.4099 5.10004C13.6899 5.41004 13.0399 5.29004 12.4799 4.75004C12.0899 4.38004 11.7099 3.98004 11.3199 3.60004C10.9499 3.24004 10.6799 3.24004 10.3199 3.60004C9.57991 4.34004 8.83991 5.07004 8.10991 5.82004C7.75991 6.18004 7.75991 6.46004 8.10991 6.83004C8.63991 7.37004 9.17991 7.90004 9.70991 8.44004C9.79991 8.53004 9.87991 8.62004 9.94991 8.72004" stroke="white" stroke-miterlimit="10"/>
<path d="M23.7501 19.0898C24.8801 17.8998 25.4901 16.4798 25.5401 14.8398C25.6201 12.3598 24.1601 10.0498 21.8601 8.99979C19.6201 7.97979 16.9101 8.40979 15.1101 10.0798C15.0101 10.1698 14.9201 10.2598 14.8101 10.3398" stroke="white" stroke-miterlimit="10"/>
<path d="M16.9901 22.12C16.9401 25.32 14.6701 27.17 11.9001 27.22C9.05006 27.27 6.77006 24.94 6.78006 22.08C6.78006 19.28 9.07006 17 11.8701 17C14.7101 17 17.0001 19.29 16.9901 22.12Z" stroke="white" stroke-miterlimit="10"/>
</svg>
