<svg width="34" height="34" viewBox="0 0 34 34" fill="none" xmlns="http://www.w3.org/2000/svg">
<path d="M22.7501 32.6201C22.7501 32.6201 22.7101 32.6201 22.6901 32.6201H22.5901C22.6401 32.6201 22.7001 32.6201 22.7501 32.6201Z" stroke="white" stroke-miterlimit="10"/>
<path d="M25.49 4.16988V17.3499C24.6 16.9999 23.62 16.7999 22.6 16.7999C18.23 16.7999 14.69 20.3399 14.69 24.7099C14.69 29.0799 18.23 32.6199 22.6 32.6199H6.29999C4.75999 32.6199 3.51001 31.3699 3.51001 29.8299V4.16988C3.51001 2.62988 4.75999 1.37988 6.29999 1.37988H22.7C24.24 1.37988 25.49 2.62988 25.49 4.16988Z" stroke="white" stroke-miterlimit="10"/>
<path d="M7.55005 8.70996H21.4401" stroke="white" stroke-miterlimit="10"/>
<path d="M7.73999 13.3398H17.39" stroke="white" stroke-miterlimit="10"/>
<path d="M30.4999 24.71C30.4999 29 27.0699 32.5 22.7999 32.61C22.7799 32.61 22.7699 32.61 22.7499 32.61C22.6999 32.61 22.6499 32.61 22.5899 32.61C18.2199 32.61 14.6799 29.07 14.6799 24.7C14.6799 20.33 18.2199 16.79 22.5899 16.79C23.6099 16.79 24.5899 16.98 25.4799 17.34C28.42 18.49 30.4899 21.36 30.4899 24.7L30.4999 24.71Z" stroke="white" stroke-miterlimit="10"/>
<path d="M22 20V25H27" stroke="white" stroke-miterlimit="10"/>
</svg>
