<svg width="34" height="34" viewBox="0 0 34 34" fill="none" xmlns="http://www.w3.org/2000/svg">
<path d="M33.4301 15.1898L31.1001 16.1298L19.0301 21.0098C19.0301 21.0098 18.9301 21.0098 18.9001 20.9798L16.3801 18.0498C16.3301 17.9898 16.3501 17.8998 16.4201 17.8698L31.0101 11.7798C31.0101 11.7798 31.0501 11.7698 31.0801 11.7798C31.1101 11.7798 31.1401 11.7998 31.1501 11.8298L33.4801 15.0198C33.5201 15.0798 33.5001 15.1698 33.4301 15.1998V15.1898Z"  stroke-miterlimit="10"/>
<path d="M26.29 6.52027C26.39 6.55027 26.4 6.70027 26.3 6.74027L21.56 8.73027L15.6 11.2403C15.6 11.2403 15.54 11.2503 15.51 11.2403L9.39005 8.93027L5.30005 7.39027L16.49 3.53027C16.49 3.53027 16.54 3.53027 16.56 3.53027L26.28 6.52027H26.29Z"  stroke-miterlimit="10"/>
<path d="M31.1 16.1299V23.2399C31.1 23.2399 31.07 23.3299 31.03 23.3399L16.29 30.4699"  stroke-miterlimit="10"/>
<path d="M26.6001 10.4802C26.6001 10.4002 26.6801 10.3402 26.7501 10.3702L31.0201 11.7202C31.0201 11.7202 31.0701 11.7502 31.0801 11.7802"  stroke-miterlimit="10"/>
<path d="M16.2401 17.8904V17.9404L13.8801 20.6804C13.8801 20.6804 13.7901 20.7304 13.7401 20.7104L2.06006 15.5404L0.570058 14.8804C0.510058 14.8504 0.480061 14.7804 0.510061 14.7204L2.01006 11.5904C2.01006 11.5904 2.04006 11.5504 2.06006 11.5404C2.09006 11.5204 2.13006 11.5204 2.16006 11.5404L16.2401 17.8804V17.8904Z"  stroke-miterlimit="10"/>
<path d="M2.06006 11.55C2.06006 11.55 2.10006 11.49 2.13006 11.47L5.14006 10.42C5.22006 10.39 5.30006 10.45 5.30006 10.53"  stroke-miterlimit="10"/>
<path d="M2.06006 15.5498V23.7198C2.06006 23.7198 2.09006 23.8098 2.13006 23.8298L16.1301 30.3998C16.2101 30.4298 16.3001 30.3798 16.3001 30.2898L16.2501 17.9398H16.2801L16.2501 17.8898"  stroke-miterlimit="10"/>
<path d="M26.6001 12.8107V6.79071C26.6001 6.71071 26.5101 6.65071 26.4401 6.68071L26.3101 6.74071L15.6401 11.2307C15.6401 11.2307 15.5701 11.2907 15.5701 11.3407V15.8907C15.5701 15.8907 15.5701 15.9207 15.5701 15.9307"  stroke-miterlimit="10"/>
<path d="M5.30005 11.8406V10.5306V10.3706V7.39062"  stroke-miterlimit="10"/>
</svg>
