<svg width="34" height="34" viewBox="0 0 34 34" fill="none" xmlns="http://www.w3.org/2000/svg">
<path d="M29.5 7.9998V30.9298C29.5 32.3198 28.37 33.4498 26.98 33.4498H7.01999C5.62999 33.4498 4.5 32.3198 4.5 30.9298V3.0698C4.5 1.6798 5.62999 0.549805 7.01999 0.549805H23" stroke="white" stroke-miterlimit="10"/>
<path d="M29.3101 7.99944H22.6701C22.6701 7.99944 22.5901 7.95944 22.5901 7.91944V0.709444C22.5901 0.629444 22.6801 0.599444 22.7301 0.649444L29.3701 7.85944C29.4201 7.90944 29.3801 7.99944 29.3101 7.99944Z" stroke="white" stroke-miterlimit="10"/>
<path d="M15 11H9V17H15V11Z" stroke="white" stroke-miterlimit="10"/>
<path d="M17 12.5H26" stroke="white" stroke-miterlimit="10"/>
<path d="M17 15.5H24.5" stroke="white" stroke-miterlimit="10"/>
<path d="M15 21H9V27H15V21Z" stroke="white" stroke-miterlimit="10"/>
<path d="M17 22.5H26" stroke="white" stroke-miterlimit="10"/>
<path d="M17 25.5H24.5" stroke="white" stroke-miterlimit="10"/>
</svg>
