<svg width="14" height="12" viewBox="0 0 14 12" fill="none" xmlns="http://www.w3.org/2000/svg">
<g clip-path="url(#clip0_662_3161)">
<path d="M6.69053 11.1526C9.66261 11.1526 12.072 8.89756 12.072 6.11579C12.072 3.33402 9.66261 1.07895 6.69053 1.07895C3.71844 1.07895 1.30908 3.33402 1.30908 6.11579C1.30908 8.89756 3.71844 11.1526 6.69053 11.1526Z" fill="white" stroke="#333333" stroke-miterlimit="10"/>
<path d="M6.69075 8.89473C8.33053 8.89473 9.65982 7.65056 9.65982 6.11578C9.65982 4.58101 8.33053 3.33684 6.69075 3.33684C5.05098 3.33684 3.72168 4.58101 3.72168 6.11578C3.72168 7.65056 5.05098 8.89473 6.69075 8.89473Z" fill="white" stroke="#333333" stroke-miterlimit="10"/>
<path d="M10.8349 1.07895L8.48438 3.22105V4.55263H9.96891L12.3813 2.64211L11.1442 2.17895L10.8349 1.07895Z" fill="white" stroke="#333333" stroke-miterlimit="10"/>
<path d="M8.54645 4.49474L6.44336 6.23158" stroke="#333333" stroke-miterlimit="10"/>
</g>
<defs>
<clipPath id="clip0_662_3161">
<rect width="14" height="12" fill="white"/>
</clipPath>
</defs>
</svg>
